<?xml version="1.0" encoding="UTF-8"?><svg id="a" xmlns="http://www.w3.org/2000/svg" viewBox="0 0 1080 1080"><defs><style>.b{fill:#a9e090;}.c{fill:#2d2d2d;}.d{fill:#fd8e8e;}</style></defs><path class="b" d="M133.35,854.44c-7.5,0-14.07-5.31-15.53-12.81-.02-.11-3.21-15.62-12.61-30.68-11.28-18.09-26.4-27.44-44.92-27.81-8.74-.17-15.69-7.4-15.52-16.14,.17-8.74,7.44-15.69,16.14-15.52,21.95,.43,41.18,8.71,56.62,24.19v-37.91c0-8.74,7.09-15.83,15.84-15.83h0c8.75,0,15.83,7.09,15.83,15.84v100.85c0,8.16-6.2,14.98-14.32,15.76-.51,.05-1.02,.07-1.53,.07Z"/><path class="b" d="M133.38,854.42c-1.02,0-2.04-.1-3.08-.3-8.56-1.69-14.14-9.96-12.48-18.53,.16-.83,4.09-20.56,16.24-40.45,17.09-27.98,41.9-43.08,71.75-43.66,8.72-.18,15.97,6.78,16.14,15.52,.17,8.74-6.78,15.97-15.52,16.14-18.52,.36-33.63,9.72-44.92,27.81-9.39,15.06-12.59,30.57-12.62,30.73-1.51,7.52-8.13,12.74-15.52,12.74Z"/><g><path class="c" d="M41.21,469.53l18.98-33.51c3.23-5.25,10.9-4.44,13.73-2.42,1.61,.81,30.69,22.21,57.33,22.21,16.15,0,27.86-10.09,27.86-24.23,0-16.96-14.13-29.88-41.59-40.78-34.72-13.73-78.33-40.78-78.33-89.23,0-39.97,31.09-80.35,93.27-80.35,41.99,0,74.29,21.4,86.41,30.28,4.84,2.83,4.04,10.09,2.42,12.92l-20.59,31.09c-2.83,4.44-10.09,8.08-13.73,5.25-3.63-2.02-33.11-24.23-57.74-24.23-14.54,0-25.44,9.69-25.44,20.59,0,14.94,12.11,26.24,44.01,39.17,31.49,12.52,81.56,37.15,81.56,92.06,0,41.59-35.94,83.58-95.29,83.58-52.49,0-81.56-21.8-90.85-31.09-4.04-4.04-5.25-5.65-2.02-11.31Z"/><path class="c" d="M329.77,284.61h-57.74c-4.44,0-7.67-3.63-7.67-7.67v-44.01c0-4.04,3.23-7.67,7.67-7.67h179.27c4.44,0,7.67,3.63,7.67,7.67v44.01c0,4.04-3.23,7.67-7.67,7.67h-57.74v215.61c0,4.04-3.63,7.67-7.67,7.67h-48.45c-4.04,0-7.67-3.63-7.67-7.67v-215.61Z"/><path class="c" d="M512.01,232.9c0-4.04,3.63-7.67,7.67-7.67h49.66c4.44,0,7.67,3.63,7.67,7.67v163.53c0,28.26,21,50.88,49.66,50.88s50.47-22.61,50.47-50.88V232.9c0-4.04,3.23-7.67,7.67-7.67h49.66c4.04,0,7.67,3.63,7.67,7.67v166.76c0,61.37-51.68,112.25-115.48,112.25s-114.67-50.88-114.67-112.25V232.9Z"/><path class="c" d="M793.3,232.92c0-4.04,3.23-7.67,7.27-7.67h98.52c77.93,0,141.72,63.39,141.72,140.92s-63.8,141.72-141.72,141.72h-98.52c-4.04,0-7.27-3.63-7.27-7.67V232.92Zm101.75,215.21c45.63,0,78.73-35.94,78.73-81.96s-33.11-81.56-78.73-81.56h-38.76v163.53h38.76Z"/></g><g><path class="c" d="M276.89,579.78c0-4.04,3.23-7.67,7.67-7.67h94.08c47.65,0,86.81,32.71,86.81,75.1,0,31.09-27.86,53.7-46.84,63.8,21.4,8.88,54.11,28.67,54.11,65.81,0,45.22-39.97,77.93-88.02,77.93h-100.14c-4.44,0-7.67-3.63-7.67-7.67v-267.3Zm94.48,107c15.34,0,28.26-12.92,28.26-29.07s-12.92-27.46-28.26-27.46h-31.49v56.53h31.49Zm5.25,110.23c15.75,0,29.07-12.92,29.07-29.48s-17.36-28.26-33.11-28.26h-32.7v57.74h36.74Z"/><path class="c" d="M512,579.78c0-4.04,3.63-7.67,7.67-7.67h49.66c4.44,0,7.67,3.63,7.67,7.67v163.53c0,28.26,21,50.87,49.66,50.87s50.47-22.61,50.47-50.87v-163.53c0-4.04,3.23-7.67,7.67-7.67h49.66c4.04,0,7.67,3.63,7.67,7.67v166.76c0,61.37-51.68,112.25-115.48,112.25s-114.67-50.87-114.67-112.25v-166.76Z"/><path class="c" d="M793.3,579.78c0-4.04,3.23-7.67,7.27-7.67h98.52c77.93,0,141.72,63.39,141.72,140.92s-63.8,141.72-141.72,141.72h-98.52c-4.04,0-7.27-3.63-7.27-7.67v-267.3Zm101.75,215.21c45.63,0,78.73-35.94,78.73-81.97s-33.11-81.56-78.73-81.56h-38.76v163.53h38.76Z"/></g><path class="d" d="M133.24,746.9c-64.38,0-93.2-51.97-93.2-103.47,0-6.05,1.49-29.22,4.95-38.76,1.7-4.69,5.59-8.25,10.41-9.53,4.82-1.28,9.97-.12,13.77,3.11l26.52,22.5,22.54-37.27c2.75-4.54,7.66-7.33,12.96-7.35,5.31-.01,10.24,2.71,13.04,7.22l22.48,36.33,23.96-23.63c3.21-3.17,7.66-4.75,12.15-4.32,4.49,.43,8.56,2.82,11.11,6.53,7.72,11.22,12.51,28.53,12.51,45.17,0,26.33-7.19,50.71-20.25,68.66-16.57,22.77-41.8,34.81-72.94,34.81Zm-62.61-107.45c-.07,1.48-.12,2.83-.12,3.98,0,12.19,3.02,72.99,62.73,72.99s62.71-55.87,62.71-72.99c0-2.96-.25-6.05-.72-9.09l-20.73,20.45c-3.3,3.26-7.9,4.84-12.51,4.28-4.6-.55-8.71-3.17-11.15-7.11l-19.43-31.39-18.9,31.26c-2.31,3.82-6.18,6.44-10.59,7.15-4.41,.72-8.91-.53-12.31-3.42l-18.99-16.11Z"/><path class="d" d="M201.21,671.99c-10.38,26.43-31.81,51.42-71.05,51.42s-64.08-23.89-71.05-51.42c-12.7-50.2,31.81-51.42,71.05-51.42s92.49-3.17,71.05,51.42Z"/></svg>